<?xml version="1.0" encoding="UTF-8"?>
<svg width="29px" height="29px" viewBox="0 0 29 29" version="1.1" xmlns="http://www.w3.org/2000/svg" xmlns:xlink="http://www.w3.org/1999/xlink">
    <title>Wand Copy</title>
    <g id="Wand-Copy" stroke="none" stroke-width="1" fill="none" fill-rule="evenodd">
        <g id="Group" transform="translate(1, 1)" fill="#4C4A4A">
            <path d="M0.707106781,1.45289322 L1.45289322,0.707106781 C1.84341751,0.316582489 2.47658249,0.316582489 2.86710678,0.707106781 L26.2928932,24.1328932 C26.6834175,24.5234175 26.6834175,25.1565825 26.2928932,25.5471068 L25.5471068,26.2928932 C25.1565825,26.6834175 24.5234175,26.6834175 24.1328932,26.2928932 L0.707106781,2.86710678 C0.316582489,2.47658249 0.316582489,1.84341751 0.707106781,1.45289322 Z" id="Rectangle"></path>
            <path d="M25.5471068,0.707106781 L26.2928932,1.45289322 C26.6834175,1.84341751 26.6834175,2.47658249 26.2928932,2.86710678 L2.86710678,26.2928932 C2.47658249,26.6834175 1.84341751,26.6834175 1.45289322,26.2928932 L0.707106781,25.5471068 C0.316582489,25.1565825 0.316582489,24.5234175 0.707106781,24.1328932 L24.1328932,0.707106781 C24.5234175,0.316582489 25.1565825,0.316582489 25.5471068,0.707106781 Z" id="Rectangle"></path>
        </g>
    </g>
</svg>